<?xml version="1.0" standalone="no"?>
<!DOCTYPE svg PUBLIC "-//W3C//DTD SVG 20010904//EN"
 "http://www.w3.org/TR/2001/REC-SVG-20010904/DTD/svg10.dtd">
<svg version="1.0" xmlns="http://www.w3.org/2000/svg"
 width="600.000000pt" height="600.000000pt" viewBox="0 0 600.000000 600.000000"
 preserveAspectRatio="xMidYMid meet">

<g transform="translate(0.000000,600.000000) scale(0.100000,-0.100000)"
fill="#000000" stroke="none">
<path d="M3670 4799 c-201 -43 -456 -97 -567 -120 l-203 -42 0 -180 0 -180
-72 -68 c-40 -38 -76 -68 -80 -69 -5 0 -8 146 -8 325 0 179 -3 325 -7 325 -5
0 -43 -15 -85 -32 l-78 -33 0 -220 0 -220 -171 -190 c-94 -104 -177 -191 -185
-193 -8 -2 -100 15 -206 38 -106 22 -206 43 -223 46 l-30 6 31 -33 c17 -19
107 -119 200 -224 167 -188 386 -433 952 -1067 l293 -328 491 0 491 0 -20 23
c-11 12 -223 248 -471 524 l-452 502 0 221 0 221 -46 19 -46 20 74 83 c41 45
226 253 413 462 186 209 356 399 379 423 38 40 39 42 16 41 -14 -1 -189 -37
-390 -80z m299 -21 c-41 -45 -129 -142 -197 -215 l-123 -133 -363 0 -363 0 -7
61 c-11 109 -9 128 17 134 55 14 1083 233 1096 234 7 1 -20 -36 -60 -81z
m-1239 -95 c0 -49 -3 -125 -7 -170 l-6 -83 -63 0 -64 0 -1 130 c-1 72 -2 135
-3 142 -1 9 114 66 137 68 4 0 7 -39 7 -87z m-365 -831 l550 -117 3 -248 2
-247 95 0 95 0 0 321 0 320 21 -6 c12 -4 45 -17 74 -30 l52 -23 -5 -214 -5
-214 127 -145 127 -144 -460 -3 -459 -2 -65 67 c-86 91 -717 792 -717 798 0 7
-20 12 565 -113z m735 -267 l0 -325 -85 0 -85 0 2 303 3 302 65 22 c111 37
100 69 100 -302z"/>
<path d="M4107 4780 l-48 -59 565 -623 566 -622 0 -123 0 -123 211 0 211 0
-30 35 c-17 19 -192 213 -389 432 -197 218 -461 512 -588 653 -403 449 -436
485 -443 487 -4 2 -29 -24 -55 -57z m466 -421 c75 -87 137 -160 137 -163 0 -3
-31 -6 -69 -6 l-69 0 -129 138 c-71 75 -182 195 -247 265 -132 144 -126 123
-58 199 l24 26 136 -151 c76 -84 199 -222 275 -308z"/>
<path d="M1005 3204 c-369 -410 -694 -772 -723 -805 l-54 -59 206 0 206 0 0
119 0 119 565 621 c311 342 565 627 565 634 0 7 -22 35 -48 64 l-47 52 -670
-745z m715 676 l42 -50 -259 -282 c-142 -155 -298 -324 -347 -375 l-88 -93
-69 0 c-38 0 -69 2 -69 5 0 3 33 43 73 89 107 122 672 756 674 756 0 0 20 -22
43 -50z"/>
<path d="M5570 3893 c303 -253 276 -575 -80 -946 -852 -891 -3186 -1536 -4560
-1261 -513 102 -800 328 -800 629 0 109 41 237 111 345 l23 35 -28 -25 c-41
-37 -159 -195 -200 -268 l-36 -64 0 -325 0 -325 35 -48 c194 -264 624 -441
1234 -507 214 -23 697 -23 951 1 1042 96 2105 433 2885 915 410 253 740 565
874 830 31 60 24 84 -7 26 -15 -27 -36 -65 -47 -82 l-20 -33 -272 0 -271 0 70
68 c261 250 384 491 357 705 -11 85 -41 155 -102 236 l-48 63 38 -23 c126 -75
235 -174 293 -265 18 -29 30 -41 30 -30 0 25 -57 101 -127 167 -84 79 -185
146 -308 201 l-40 18 45 -37z"/>
<path d="M3905 3890 c-46 -10 -90 -36 -119 -70 -26 -32 -56 -115 -56 -157 0
-24 0 -24 108 -21 l107 3 3 119 c1 66 -1 122 -5 126 -4 4 -21 4 -38 0z m23
-52 l-3 -43 -69 -3 -69 -3 15 23 c16 23 91 68 115 68 10 0 13 -11 11 -42z"/>
<path d="M4030 3765 l0 -125 106 0 106 0 -7 48 c-9 59 -30 110 -58 141 -26 28
-92 60 -124 61 -23 0 -23 -2 -23 -125z m97 83 c13 -6 30 -22 38 -35 l15 -23
-63 0 -64 0 -6 37 c-4 20 -4 40 -1 44 5 8 40 -2 81 -23z"/>
<path d="M3730 3420 l0 -130 58 0 c31 0 81 3 110 6 l52 7 0 123 0 124 -110 0
-110 0 0 -130z m198 68 l-3 -43 -87 -3 -88 -3 0 46 0 45 91 0 90 0 -3 -42z"/>
<path d="M4030 3425 l0 -125 105 0 105 0 0 125 0 125 -105 0 -105 0 0 -125z
m190 63 l0 -43 -85 3 c-72 3 -85 6 -85 20 0 9 -3 27 -6 40 -6 22 -5 22 85 22
l91 0 0 -42z"/>
<path d="M1718 2975 c-25 -14 -56 -38 -68 -55 -24 -34 -50 -110 -50 -147 0
-23 2 -23 105 -23 l105 0 0 125 c0 123 0 125 -22 125 -13 -1 -44 -12 -70 -25z
m75 -52 l-6 -53 -74 0 -74 0 16 29 c22 44 117 101 137 82 3 -3 4 -30 1 -58z"/>
<path d="M1890 2875 l0 -125 109 0 109 0 -5 43 c-3 23 -16 66 -30 95 -20 42
-35 59 -76 82 -29 16 -64 30 -79 30 l-28 0 0 -125z m98 88 c32 -15 72 -61 72
-82 0 -7 -27 -11 -75 -11 l-75 0 0 61 c0 67 0 67 78 32z"/>
<path d="M1600 2530 l0 -120 89 0 c49 0 96 -3 105 -6 14 -5 16 9 16 120 l0
126 -105 0 -105 0 0 -120z m196 88 c-3 -13 -6 -37 -6 -55 l0 -32 -84 -3 -84
-3 -6 44 c-10 75 -16 71 90 71 95 0 96 0 90 -22z"/>
<path d="M1890 2525 l0 -125 110 0 110 0 0 125 0 125 -110 0 -110 0 0 -125z
m200 55 l0 -60 -90 0 -90 0 0 60 0 60 90 0 90 0 0 -60z"/>
</g>
</svg>
