<svg width="125" height="79" viewBox="0 0 125 79" fill="none" xmlns="http://www.w3.org/2000/svg">
<path d="M76.4121 1.66923C72.2272 2.56452 66.9179 3.68884 64.6068 4.16772L60.3802 5.04219V8.78992V12.5377L58.8811 13.9535C58.0482 14.7447 57.2987 15.3693 57.2154 15.3901C57.1113 15.3901 57.0488 12.3503 57.0488 8.62336C57.0488 4.89645 56.9864 1.85662 56.9031 1.85662C56.799 1.85662 56.0078 2.16893 55.1333 2.52288L53.5093 3.20997V7.79053V12.3711L49.949 16.327C47.9918 18.4924 46.2637 20.3038 46.0971 20.3454C45.9306 20.3871 44.0151 20.0331 41.8081 19.5542C39.6011 19.0962 37.519 18.659 37.165 18.5965L36.5404 18.4716L37.1858 19.1587C37.5398 19.5542 39.4137 21.6363 41.35 23.8225C44.8271 27.7368 49.3868 32.8379 61.1713 46.0382L67.2718 52.8674H77.4948H87.7178L87.3014 52.3886C87.0723 52.1387 82.6583 47.225 77.4948 41.4785L68.0838 31.0265V26.4251V21.8237L67.1261 21.4281L66.1683 21.0117L67.7091 19.2836C68.5627 18.3466 72.4145 14.0159 76.308 9.66439C80.1807 5.31286 83.7202 1.35692 84.1991 0.857222C84.9903 0.024392 85.0111 -0.0172495 84.5322 0.00357123C84.2407 0.024392 80.5971 0.773939 76.4121 1.66923ZM82.6375 2.10647C81.7839 3.0434 79.9516 5.06301 78.5358 6.58293L75.9749 9.35208H68.417H60.859L60.7133 8.08202C60.4843 5.81256 60.5259 5.41696 61.0672 5.29204C62.2124 5.00055 83.6161 0.440807 83.8868 0.419986C84.0325 0.399165 83.4704 1.16953 82.6375 2.10647ZM56.8406 4.08444C56.8406 5.10465 56.7782 6.68703 56.6949 7.62396L56.57 9.35208H55.2583H53.9257L53.9049 6.64539C53.8841 5.14629 53.8633 3.83459 53.8424 3.68884C53.8216 3.50146 56.216 2.31467 56.6949 2.27303C56.7782 2.27303 56.8406 3.08504 56.8406 4.08444ZM49.2411 21.3865L60.6925 23.8225L60.7549 28.986L60.7966 34.1288H62.7745H64.7525V27.4453V20.7827L65.1897 20.9076C65.4396 20.9909 66.1267 21.2615 66.7305 21.5322L67.8132 22.0111L67.7091 26.4667L67.605 30.9224L70.2492 33.9414L72.8934 36.9396L63.3159 37.002L53.7592 37.0437L52.4058 35.6487C50.6152 33.754 37.4773 19.1587 37.4773 19.0337C37.4773 18.888 37.0609 18.7839 49.2411 21.3865ZM64.5443 26.9456V33.7124H62.7745H61.0048L61.0464 27.4037L61.1089 21.1158L62.4622 20.6577C64.7733 19.8874 64.5443 19.2211 64.5443 26.9456Z" fill="white"/>
<path d="M85.5108 2.06489L84.5114 3.29331L96.2751 16.2646L108.06 29.2151V31.7761V34.337H112.453H116.846L116.221 33.6083C115.867 33.2127 112.224 29.1735 108.122 24.6138C104.02 20.0748 98.5237 13.9535 95.8795 11.0178C87.4887 1.6693 86.8017 0.91975 86.6559 0.878109C86.5726 0.836467 86.0521 1.37781 85.5108 2.06489ZM95.2132 10.8304C96.7748 12.6418 98.0657 14.1617 98.0657 14.2242C98.0657 14.2867 97.4202 14.3491 96.6291 14.3491H95.1924L92.5065 11.4759C91.0283 9.91431 88.7172 7.41582 87.3638 5.95837C84.6155 2.96018 84.7404 3.39742 86.1562 1.81504L86.6559 1.2737L89.4875 4.41763C91.0699 6.16658 93.6309 9.03984 95.2132 10.8304Z" fill="white"/>
<path d="M20.9248 34.8783C13.242 43.4148 6.47525 50.9519 5.87145 51.639L4.74713 52.8674H9.0362H13.3253V50.3898V47.9121L25.089 34.9824C31.5642 27.8617 36.8527 21.9278 36.8527 21.7821C36.8527 21.6363 36.3947 21.0533 35.8533 20.4495L34.8747 19.3669L20.9248 34.8783ZM35.8117 20.8035L36.6861 21.8445L31.2936 27.716C28.337 30.9432 25.089 34.4619 24.0688 35.5238L22.2366 37.4601H20.7999C20.0087 37.4601 19.3633 37.4184 19.3633 37.356C19.3633 37.2935 20.0504 36.4607 20.8832 35.5029C23.111 32.9628 34.8747 19.7625 34.9164 19.7625C34.9164 19.7625 35.3328 20.2205 35.8117 20.8035Z" fill="white"/>
<path d="M115.972 20.5329C122.28 25.8005 121.718 32.5048 114.306 40.2293C96.5666 58.7806 47.971 72.21 19.3633 66.4843C8.68225 64.3606 2.7067 59.6551 2.7067 53.388C2.7067 51.1186 3.56035 48.4535 5.0178 46.2049L5.49668 45.4761L4.91369 45.9967C4.06004 46.767 1.6032 50.0567 0.749547 51.5766L0 52.9092V59.6759V66.4426L0.728726 67.442C4.76795 72.9387 13.7209 76.624 26.4215 77.9981C30.8772 78.477 40.9336 78.477 46.222 77.9773C67.9173 75.9785 90.0497 68.9619 106.29 58.9263C114.826 53.6587 121.697 47.1626 124.487 41.6451C125.133 40.3959 124.987 39.8962 124.341 41.1038C124.029 41.666 123.592 42.4571 123.363 42.8111L122.946 43.4982H117.283H111.641L113.098 42.0824C118.532 36.8772 121.093 31.8594 120.531 27.4037C120.302 25.634 119.678 24.1765 118.408 22.4901L117.408 21.1783L118.199 21.6572C120.823 23.2188 123.092 25.28 124.3 27.1747C124.675 27.7785 124.924 28.0284 124.924 27.7993C124.924 27.2788 123.738 25.6964 122.28 24.3223C120.531 22.6774 118.428 21.2824 115.867 20.1373L115.035 19.7625L115.972 20.5329Z" fill="white"/>
<path d="M81.305 20.5954C80.3472 20.8036 79.4311 21.345 78.8273 22.0529C78.286 22.7192 77.6614 24.4473 77.6614 25.3217C77.6614 25.8214 77.6614 25.8214 79.91 25.759L82.1378 25.6965L82.2003 23.2189C82.2211 21.8447 82.1795 20.6787 82.0962 20.5954C82.0129 20.5122 81.6589 20.5122 81.305 20.5954ZM81.7839 21.6781L81.7214 22.5734L80.2848 22.6359L78.8481 22.6983L79.1605 22.2195C79.4936 21.7406 81.0551 20.8036 81.5548 20.8036C81.763 20.8036 81.8255 21.0327 81.7839 21.6781Z" fill="white"/>
<path d="M83.9076 23.1979V25.8005H86.1146H88.3216L88.1758 24.8011C87.9885 23.5727 87.5512 22.5109 86.9682 21.8654C86.4269 21.2824 85.0527 20.6162 84.3865 20.5954C83.9076 20.5954 83.9076 20.637 83.9076 23.1979ZM85.9272 21.4698C86.1979 21.5947 86.5518 21.9279 86.7184 22.1985L87.0307 22.6774H85.719H84.3865L84.2615 21.9071C84.1783 21.4906 84.1783 21.0742 84.2407 20.9909C84.3448 20.8244 85.0736 21.0326 85.9272 21.4698Z" fill="white"/>
<path d="M77.6614 30.3812V33.0879H78.869C79.5144 33.0879 80.5554 33.0254 81.1592 32.963L82.2419 32.8172V30.2563V27.6745H79.9516H77.6614V30.3812ZM81.7839 28.9654L81.7214 29.8607L79.91 29.9231L78.0778 29.9856V29.0278V28.0909H79.9725H81.8463L81.7839 28.9654Z" fill="white"/>
<path d="M83.9076 30.277V32.8796H86.0938H88.2799V30.277V27.6745H86.0938H83.9076V30.277ZM87.8635 28.9653V29.8606L86.0938 29.7982C84.5947 29.7357 84.324 29.6732 84.324 29.3818C84.324 29.1944 84.2615 28.8196 84.1991 28.5489C84.0742 28.0909 84.095 28.0909 85.9688 28.0909H87.8635V28.9653Z" fill="white"/>
<path d="M35.77 39.6464C35.2495 39.9379 34.6041 40.4376 34.3542 40.7915C33.8545 41.4994 33.3132 43.0818 33.3132 43.8522C33.3132 44.3311 33.3548 44.3311 35.4994 44.3311H37.6855V41.7285C37.6855 39.1675 37.6855 39.1259 37.2275 39.1259C36.9568 39.1467 36.3114 39.3757 35.77 39.6464ZM37.3316 40.7291L37.2067 41.8326H35.6659H34.1252L34.4583 41.2288C34.9164 40.3127 36.8944 39.1259 37.3108 39.5215C37.3732 39.5839 37.3941 40.1461 37.3316 40.7291Z" fill="white"/>
<path d="M39.3512 41.7285V44.3311H41.6207H43.8901L43.786 43.4358C43.7236 42.9569 43.4529 42.0616 43.1614 41.4578C42.745 40.5833 42.4327 40.2294 41.579 39.7505C40.9752 39.4174 40.2465 39.1259 39.9342 39.1259H39.3512V41.7285ZM41.3916 39.8962C42.0579 40.2085 42.8907 41.1663 42.8907 41.6035C42.8907 41.7493 42.3286 41.8326 41.3292 41.8326H39.7676V40.5625C39.7676 39.1675 39.7676 39.1675 41.3916 39.8962Z" fill="white"/>
<path d="M33.3132 48.9116V51.4101H35.1662C36.1864 51.4101 37.165 51.4726 37.3524 51.535C37.6439 51.6391 37.6855 51.3476 37.6855 49.0365V46.4131H35.4994H33.3132V48.9116ZM37.3941 47.0794C37.3316 47.35 37.2691 47.8497 37.2691 48.2245V48.8908L35.5202 48.9532L33.7712 49.0157L33.6463 48.0996C33.4381 46.538 33.3132 46.6213 35.5202 46.6213C37.4982 46.6213 37.519 46.6213 37.3941 47.0794Z" fill="white"/>
<path d="M39.3512 49.0157V51.6183H41.6415H43.9318V49.0157V46.4131H41.6415H39.3512V49.0157ZM43.5153 47.8706V49.1198H41.6415H39.7676V47.8706V46.6213H41.6415H43.5153V47.8706Z" fill="white"/>
</svg>
